# xmcd CD database file
#
# Track frame offsets:
#	187
#	21032
#	40290
#
# Disc length: 812 seconds
#
# Revision: 0
# Processed by: cddbd v1.5.1PL2 Copyright (c) Steve Scherf et al.
# Submitted via: CDex 1.51
#
DISCID=1b032a03
DTITLE=西城秀樹 - Ｒｏｃｋ　Ｙｏｕｒ　Ｆｉｒｅ
DYEAR=1991
DGENRE=JPop
TTITLE0=Ｒｏｃｋ　Ｙｏｕｒ　Ｆｉｒｅ
TTITLE1=蒼い月の悪戯
TTITLE2=Ｒｏｃｋ　Ｙｏｕｒ　Ｆｉｒｅ（オリジナル・カラオケ）
EXTD=YEAR: 1991/3/25
EXTT0=
EXTT1=
EXTT2=
PLAYORDER=
